<svg xmlns="http://www.w3.org/2000/svg" version="1.1" xmlns:xlink="http://www.w3.org/1999/xlink" width="2000" height="1500" viewBox="0 0 2000 1500"><rect width="2000" height="1500" x="0" y="0" id="background" stroke="transparent" fill="#e62b5a"></rect><svg xml:space="preserve" width="1500" height="1125" data-version="2" data-id="lg_uxKVqGuWSXkBtXOZQs" viewBox="0 0 497 497" x="250" y="187.5"><rect width="100%" height="100%" fill="transparent"></rect><path fill="#eeeee8" d="M491.189 232.128a36.758 36.758 0 0 0-13.346-26.749 28.276 28.276 0 0 0-15.721-6.39 220.549 220.549 0 0 0-3.846-14.477 28.276 28.276 0 0 0 10.405-13.346 37.324 37.324 0 0 0-1.696-29.859q-3.732-7.351-7.804-14.477c-2.658-4.807-5.768-9.33-8.652-13.968a37.324 37.324 0 0 0-24.996-16.4 28.276 28.276 0 0 0-16.796 2.375q-5.09-5.485-10.575-10.631c2.375-5.09 3.224-10.915 2.319-16.74a37.324 37.324 0 0 0-16.4-24.995c-4.58-2.94-9.105-5.994-13.911-8.652q-7.182-4.128-14.477-7.748a37.324 37.324 0 0 0-29.86-1.753 28.276 28.276 0 0 0-13.345 10.406q-7.182-2.206-14.534-3.902a28.772 28.772 0 0 0-6.39-15.665 36.758 36.758 0 0 0-26.636-13.346c-5.485-.566-10.97-.396-16.4-.566-5.485.17-10.97.057-16.4.566a36.758 36.758 0 0 0-26.691 13.346 28.276 28.276 0 0 0-6.39 15.721q-7.352 1.697-14.478 3.846a28.276 28.276 0 0 0-13.402-10.406 37.324 37.324 0 0 0-29.803 1.697c-4.92 2.545-9.783 4.976-14.477 7.804-4.807 2.658-9.387 5.711-13.968 8.652a37.324 37.324 0 0 0-16.4 24.996 28.276 28.276 0 0 0 2.375 16.795q-5.542 5.09-10.631 10.575a28.276 28.276 0 0 0-16.74-2.318 37.324 37.324 0 0 0-24.995 16.4c-2.94 4.524-5.994 9.104-8.652 13.911q-4.128 7.126-7.804 14.477a37.324 37.324 0 0 0-1.697 29.86 28.276 28.276 0 0 0 10.35 13.345q-2.15 7.182-3.846 14.534c-5.655.509-11.14 2.658-15.665 6.39a36.758 36.758 0 0 0-13.402 26.636c-.51 5.485-.396 10.97-.566 16.4.17 5.485.057 10.97.566 16.4a36.758 36.758 0 0 0 13.402 26.691 28.276 28.276 0 0 0 15.665 6.39q1.696 7.352 3.902 14.477a28.276 28.276 0 0 0-10.462 13.403 37.324 37.324 0 0 0 1.753 29.802q3.62 7.352 7.804 14.534 4.072 7.069 8.652 13.912a37.324 37.324 0 0 0 24.996 16.4c5.825.904 11.593 0 16.739-2.32a226.204 226.204 0 0 0 10.575 10.576 28.276 28.276 0 0 0-2.262 16.795 37.324 37.324 0 0 0 16.343 24.94c4.58 2.94 9.161 6.05 13.968 8.652q7.126 4.128 14.477 7.804c10.123 4.92 21.15 5.26 29.803 1.696a28.276 28.276 0 0 0 13.346-10.348q7.182 2.262 14.533 3.845c.566 5.655 2.658 11.14 6.39 15.721a36.758 36.758 0 0 0 26.693 13.346c5.429.51 10.914.396 16.4.566 5.428-.17 10.914-.057 16.4-.566a36.758 36.758 0 0 0 26.691-13.346 28.276 28.276 0 0 0 6.39-15.721q7.296-1.697 14.478-3.845a28.276 28.276 0 0 0 13.346 10.405 37.324 37.324 0 0 0 29.859-1.753q7.351-3.676 14.477-7.804c4.806-2.602 9.33-5.655 13.968-8.653a37.324 37.324 0 0 0 16.343-24.939c.905-5.88 0-11.649-2.319-16.795q5.43-5.09 10.632-10.575c5.09 2.375 10.914 3.223 16.739 2.262a37.324 37.324 0 0 0 24.996-16.287c2.94-4.637 5.994-9.161 8.652-13.968q4.128-7.125 7.747-14.534c4.92-10.122 5.26-21.093 1.753-29.802a28.276 28.276 0 0 0-10.405-13.346q2.206-7.182 3.902-14.534c5.655-.565 11.084-2.657 15.665-6.39a36.758 36.758 0 0 0 13.346-26.692c.565-5.429.396-10.914.565-16.4-.17-5.429-.056-10.914-.565-16.4m-60.397-17.926a33.93 33.93 0 0 0-7.182 22.394c.453 3.959.283 7.917.453 11.876-.17 3.958 0 7.917-.453 11.875a33.93 33.93 0 0 0 7.182 22.451 39.586 39.586 0 0 0 12.837 11.084q-1.527 6.56-3.393 12.894a39.586 39.586 0 0 0-16.682 3.167 33.93 33.93 0 0 0-17.361 15.834q-2.602 5.316-5.656 10.462c-1.866 3.506-4.128 6.73-6.22 10.066a33.93 33.93 0 0 0-5.09 22.96c.679 5.485 2.489 11.084 5.542 16.06q-4.58 4.864-9.444 9.444a39.586 39.586 0 0 0-16.004-5.542 33.93 33.93 0 0 0-22.96 5.09c-3.392 2.092-6.616 4.354-10.122 6.22q-5.09 2.998-10.462 5.655a33.93 33.93 0 0 0-15.834 17.362c-2.093 5.033-3.337 10.744-3.167 16.626q-6.334 1.866-12.894 3.393a39.586 39.586 0 0 0-11.084-12.78 33.93 33.93 0 0 0-22.394-7.183c-3.958.396-7.917.226-11.876.453-3.958-.227-7.917 0-11.875-.453a33.93 33.93 0 0 0-22.451 7.182 39.586 39.586 0 0 0-11.084 12.78q-6.56-1.47-12.894-3.392a39.586 39.586 0 0 0-3.223-16.683 33.93 33.93 0 0 0-15.834-17.361q-5.26-2.601-10.406-5.599c-3.506-1.866-6.73-4.128-10.066-6.22a33.93 33.93 0 0 0-22.96-5.09 39.586 39.586 0 0 0-16.06 5.542q-4.863-4.58-9.444-9.444a39.586 39.586 0 0 0 5.542-16.06 33.93 33.93 0 0 0-5.09-22.96c-2.092-3.393-4.354-6.616-6.22-10.066q-3.054-5.146-5.655-10.462a33.93 33.93 0 0 0-17.361-15.834 39.586 39.586 0 0 0-16.626-3.167q-1.923-6.447-3.394-12.894a39.586 39.586 0 0 0 12.781-11.084 33.93 33.93 0 0 0 7.182-22.45c-.452-3.96-.283-7.918-.452-11.876.17-3.959 0-7.917.452-11.876a33.93 33.93 0 0 0-7.182-22.394 39.586 39.586 0 0 0-12.837-11.14q1.527-6.448 3.393-12.838c5.938.113 11.65-1.13 16.683-3.223a33.93 33.93 0 0 0 17.36-15.834q2.602-5.316 5.656-10.462c1.866-3.45 4.128-6.73 6.22-10.066a33.93 33.93 0 0 0 5.09-22.96 39.586 39.586 0 0 0-5.542-16.06q4.58-4.864 9.444-9.388a39.586 39.586 0 0 0 16.06 5.542 33.93 33.93 0 0 0 22.904-5.09c3.393-2.092 6.616-4.41 10.122-6.22q5.09-3.054 10.462-5.655a33.93 33.93 0 0 0 15.834-17.362c2.093-5.09 3.337-10.744 3.167-16.626q6.39-1.979 12.894-3.393c2.828 5.09 6.73 9.388 11.084 12.78a33.93 33.93 0 0 0 22.394 7.126c3.959-.396 7.917-.226 11.876-.452 3.958.226 7.974.056 11.876.452a33.93 33.93 0 0 0 22.45-7.125 39.586 39.586 0 0 0 11.14-12.837q6.448 1.47 12.838 3.393a39.586 39.586 0 0 0 3.223 16.682 33.93 33.93 0 0 0 15.835 17.362q5.315 2.6 10.405 5.655c3.506 1.81 6.786 4.128 10.123 6.22a33.93 33.93 0 0 0 22.96 5.09 39.586 39.586 0 0 0 16.06-5.542q4.807 4.524 9.387 9.387a39.586 39.586 0 0 0-5.542 16.06 33.93 33.93 0 0 0 5.09 22.96c2.092 3.394 4.354 6.617 6.22 10.067q3.054 5.146 5.656 10.462a33.93 33.93 0 0 0 17.36 15.834c5.034 2.149 10.745 3.393 16.627 3.223q1.979 6.39 3.393 12.894a39.586 39.586 0 0 0-12.78 11.084m-6.278-97.607a16.965 16.965 0 0 1 10.236 6.842c2.714 4.298 5.542 8.483 7.974 12.894q3.845 6.56 7.182 13.346c2.035 4.072 2.092 8.596.848 12.328l-.34.849q-2.205-5.316-4.75-10.406c-2.601-5.09-8.37-7.182-13.007-4.58a9.84 9.84 0 0 0-4.015 12.893q2.375 4.977 4.524 10.066l-1.696-.565a14.703 14.703 0 0 1-8.257-7.465q-2.94-5.881-6.22-11.536c-2.093-3.902-4.637-7.465-6.956-11.198a14.703 14.703 0 0 1-1.98-12.667q2.828 3.789 5.543 7.691c2.94 4.241 8.709 5.599 13.176 2.828 4.468-2.715 5.655-8.879 2.432-13.573q-2.715-4.015-5.655-7.917zm-89.52-70.35c3.676-1.244 8.2-1.13 12.328.849q6.843 3.28 13.346 7.182c4.411 2.431 8.596 5.259 12.837 7.917a16.965 16.965 0 0 1 6.9 10.292l.112.905a220.549 220.549 0 0 0-9.274-6.673c-4.807-3.11-10.914-1.923-13.572 2.545-2.715 4.524-1.414 10.405 2.94 13.176q4.581 3.11 8.992 6.503a15.834 15.834 0 0 1-12.667-2.035c-3.733-2.262-7.352-4.807-11.197-6.9q-5.656-3.336-11.593-6.22a14.703 14.703 0 0 1-8.03-10.01q4.41 1.81 8.652 3.902c4.58 2.262 10.349.51 12.837-4.128 2.545-4.58.452-10.462-4.637-13.007q-4.355-2.092-8.822-3.958zM222.289 30.071c2.545-3.11 6.56-5.09 11.084-5.372 5.033-.509 10.066-.396 15.155-.566 5.033.17 10.066.057 15.1.566 4.524.283 8.482 2.262 11.084 5.372l.565.736q-5.655-.68-11.367-1.132a9.614 9.614 0 0 0-10.518 9.049c-.057 5.315 4.071 9.444 9.161 9.953q5.486.339 11.028 1.074l-1.358 1.244c-2.94 2.262-6.616 3.676-10.575 3.393-4.354-.452-8.765-.339-13.12-.509-4.41.17-8.822.057-13.176.51a15.834 15.834 0 0 1-11.932-4.638q4.637-.565 9.387-.961c5.09-.51 9.218-4.75 9.048-10.01a9.444 9.444 0 0 0-10.518-8.935q-4.807.396-9.614.962zm-105.75 42.357c.791-3.902 3.223-7.634 6.955-10.236 4.241-2.714 8.426-5.542 12.837-7.973q6.56-3.846 13.346-7.182a16.965 16.965 0 0 1 12.328-.849l.849.34q-5.26 2.205-10.406 4.75c-5.09 2.601-7.182 8.37-4.58 13.007 2.488 4.524 8.313 6.39 12.893 4.015a197.929 197.929 0 0 1 10.066-4.524l-.565 1.696c-1.3 3.62-3.959 6.504-7.465 8.257-3.902 2.036-7.804 3.958-11.536 6.22-3.846 2.093-7.465 4.581-11.197 6.956a14.703 14.703 0 0 1-12.668 1.98q3.79-2.885 7.691-5.543c4.241-2.94 5.599-8.708 2.828-13.233-2.715-4.41-8.879-5.655-13.573-2.431q-4.071 2.827-7.917 5.655zm-70.294 89.577c-1.244-3.733-1.13-8.257.849-12.328q3.28-6.843 7.182-13.346c2.431-4.411 5.259-8.596 7.973-12.894a16.965 16.965 0 0 1 10.236-6.843l.905-.113q-3.393 4.524-6.673 9.275c-3.11 4.806-1.923 10.914 2.545 13.572 4.524 2.714 10.405 1.414 13.176-2.94q3.11-4.581 6.503-8.992l.396 1.81a14.703 14.703 0 0 1-2.375 10.857c-2.318 3.732-4.863 7.352-6.956 11.197q-3.28 5.655-6.22 11.537a14.703 14.703 0 0 1-10.01 8.03q1.866-4.355 3.902-8.596c2.262-4.637.51-10.349-4.128-12.894-4.524-2.488-10.462-.452-13.007 4.694q-2.092 4.355-3.958 8.822zm-16.117 112.65a15.834 15.834 0 0 1-5.372-11.085c-.509-5.09-.396-10.066-.565-15.155.17-5.033.056-10.066.565-15.1.34-4.523 2.262-8.482 5.372-11.083l.736-.566q-.679 5.655-1.075 11.367a9.614 9.614 0 0 0 9.048 10.518c5.316.057 9.388-4.071 9.897-9.16q.339-5.543 1.074-11.085l1.244 1.414c2.262 2.94 3.676 6.616 3.393 10.575-.452 4.354-.282 8.765-.509 13.12.227 4.41.057 8.822.51 13.176a15.834 15.834 0 0 1-4.638 11.932q-.565-4.637-.961-9.387a9.896 9.896 0 0 0-10.01-9.048c-5.202.056-9.444 4.807-8.935 10.518q.396 4.75.962 9.614zm42.414 105.693a16.965 16.965 0 0 1-10.293-6.899c-2.714-4.241-5.542-8.483-7.973-12.837q-3.79-6.56-7.182-13.403a16.965 16.965 0 0 1-.849-12.271l.34-.905q2.262 5.316 4.75 10.462c2.601 5.09 8.426 7.182 13.007 4.58 4.58-2.6 6.39-8.312 4.071-12.893q-2.488-4.977-4.58-10.066l1.696.565c3.62 1.301 6.504 3.959 8.257 7.409 2.036 3.958 3.958 7.86 6.22 11.592 2.15 3.846 4.638 7.465 6.956 11.198a14.703 14.703 0 0 1 1.98 12.667q-2.885-3.789-5.543-7.69a9.84 9.84 0 0 0-13.176-2.828c-4.467 2.657-5.655 8.878-2.432 13.572q2.715 3.958 5.656 7.917zm89.463 70.35c-3.732 1.244-8.2 1.13-12.328-.849q-6.842-3.28-13.346-7.182c-4.41-2.431-8.596-5.259-12.893-7.973a16.965 16.965 0 0 1-6.843-10.236l-.113-.905q4.524 3.393 9.274 6.617c4.807 3.11 10.915 1.979 13.572-2.489 2.715-4.524 1.414-10.405-2.94-13.176q-4.524-3.11-9.048-6.503l1.866-.396a14.703 14.703 0 0 1 10.858 2.375c3.732 2.319 7.351 4.863 11.197 6.956 3.732 2.262 7.634 4.185 11.536 6.22a14.703 14.703 0 0 1 8.03 10.01q-4.354-1.866-8.595-3.902a9.783 9.783 0 0 0-12.894 4.128c-2.488 4.524-.452 10.462 4.694 13.007q4.354 2.036 8.765 3.958zm112.707 16.06c-2.602 3.167-6.56 5.09-11.084 5.43-5.034.508-10.067.338-15.1.565-5.09-.17-10.179-.057-15.155-.566-4.524-.34-8.483-2.262-11.084-5.429l-.566-.678q5.655.678 11.424 1.074c5.655.566 10.405-3.902 10.461-9.048a9.896 9.896 0 0 0-9.16-9.897q-5.543-.339-11.028-1.074.565-.679 1.357-1.244c2.94-2.262 6.673-3.676 10.575-3.393 4.354.452 8.765.283 13.176.509 4.355-.226 8.766-.057 13.12-.566a15.834 15.834 0 0 1 11.933 4.694q-4.638.565-9.388.961c-5.09.453-9.218 4.75-9.048 10.01.17 5.26 4.807 9.444 10.518 8.878q4.807-.339 9.614-.961-.226.452-.565.735m105.75-42.3a16.965 16.965 0 0 1-6.956 10.18c-4.241 2.77-8.426 5.654-12.837 8.03q-6.56 3.788-13.346 7.181c-4.128 2.036-8.652 2.093-12.328.849l-.848-.34q5.259-2.262 10.405-4.75c5.09-2.601 7.182-8.426 4.58-13.007a9.84 9.84 0 0 0-12.893-4.071q-4.976 2.488-10.066 4.58l.565-1.696c1.301-3.62 3.959-6.504 7.465-8.257q5.881-2.94 11.537-6.22c3.845-2.093 7.464-4.637 11.197-6.956a14.703 14.703 0 0 1 12.667-1.98 197.929 197.929 0 0 1-7.69 5.543 9.783 9.783 0 0 0-2.828 13.176c2.714 4.468 8.878 5.655 13.572 2.432q4.072-2.715 7.917-5.655zm70.293-89.52c1.244 3.676 1.13 8.2-.848 12.271q-3.28 6.786-7.182 13.403c-2.432 4.41-5.26 8.596-7.974 12.837a16.965 16.965 0 0 1-10.236 6.9l-.905.112q3.393-4.58 6.673-9.274c3.11-4.863 1.923-10.914-2.544-13.572a9.783 9.783 0 0 0-13.177 2.94 203.584 203.584 0 0 1-6.503 8.992l-.396-1.81c-.566-3.789.17-7.634 2.375-10.857 2.375-3.733 4.863-7.352 6.956-11.198q3.336-5.655 6.22-11.592a14.703 14.703 0 0 1 10.01-8.03 192.273 192.273 0 0 1-3.902 8.652c-2.262 4.58-.509 10.348 4.128 12.837 4.524 2.544 10.462.452 13.007-4.638q2.092-4.41 3.958-8.821zm21.49-71.368c-.34 4.525-2.263 8.483-5.373 11.084l-.735.566q.678-5.655 1.074-11.423c.566-5.655-3.845-10.406-9.048-10.462a9.896 9.896 0 0 0-9.896 9.161q-.34 5.542-1.075 11.027l-1.244-1.357a15.834 15.834 0 0 1-3.393-10.575c.452-4.354.283-8.765.509-13.176-.226-4.355-.057-8.766-.51-13.12a15.834 15.834 0 0 1 4.638-11.989q.566 4.694.961 9.444c.51 5.09 4.75 9.218 10.01 9.048a9.444 9.444 0 0 0 8.935-10.518q-.396-4.864-.961-9.614l.735.566c3.11 2.544 5.09 6.503 5.372 11.084.51 5.033.396 10.066.566 15.099-.17 5.09-.057 10.122-.566 15.155"></path><path fill="#fff" d="M132.31 291.987q0-8.44 4.46-13.77 4.47-5.33 9.05-5.33 4.59 0 7.2 3.22 2.6 3.23 2.6 7.69 0 9.18-6.7 14.63 2.73 10.67 11.29 15.75 8.55 5.09 18.97 5.09 15.38 0 24.43-10.42 9.05-10.42 9.05-23.31 0-13.15-9.92-22.57-7.44-6.7-19.1-14.38l-12.64-8.19q-13.64-8.68-20.84-17.98-7.19-9.3-7.19-23.06 0-13.77 10.42-23.31 10.41-9.55 24.67-9.55 14.26 0 23.94 6.45 9.67 6.44 9.67 15.62 0 4.46-2.61 7.07-2.6 2.6-7.56 2.6-4.96 0-9.55-4.21-4.59-4.22-4.59-7.69 0-3.47.75-5.71-2.23-4.21-10.42-4.21-8.18 0-14.51 6.45-6.32 6.44-6.32 14.38 0 12.9 23.31 28.27l12.65 8.43q8.18 5.71 12.28 8.81 4.09 3.1 10.29 9.55 11.9 12.4 11.9 32.73 0 20.34-14.13 32.74-14.14 12.4-33.48 12.4-19.35 0-33.36-11.78-14.01-11.78-14.01-26.41" paint-order="stroke"></path><rect width="94.98" height="163.68" x="-47.49" y="-81.84" fill="none" rx="0" ry="0" transform="translate(180.3 248.84)"></rect><path fill="#fff" d="M359.23 314.547q5.7 0 5.7 6.45t-5.7 6.45h-27.28q-5.95 0-5.95-6.45t5.95-6.45h5.7l-7.19-22.56h-66.22l-6.94 22.56h5.95q5.95 0 5.95 6.45t-5.95 6.45H238.2q-5.95 0-5.95-6.45t5.95-6.45h6.2l41.17-132.18h-9.92q-5.7 0-5.7-6.57t5.7-6.57h25.55q5.45 0 6.69 3.47l45.14 141.85Zm-91.76-34.47h60.01l-30.25-96.72Z" paint-order="stroke"></path><rect width="132.68" height="158.22" x="-66.34" y="-79.11" fill="none" rx="0" ry="0" transform="translate(299.09 248.84)"></rect></svg></svg>